<?xml version="1.0" standalone="no"?>
<!DOCTYPE svg PUBLIC "-//W3C//DTD SVG 20010904//EN"
 "http://www.w3.org/TR/2001/REC-SVG-20010904/DTD/svg10.dtd">
<svg version="1.0" xmlns="http://www.w3.org/2000/svg"
 width="1080.000000pt" height="200pt" viewBox="0 0 1080.000000 400"
 preserveAspectRatio="xMidYMid meet">

<g transform="translate(0.000000,950.000000) scale(0.100000,-0.100000)"
fill="#000000" stroke="none">
<path d="M385 8571 c-44 -5 -96 -15 -116 -24 -50 -21 -116 -82 -142 -131 l-22
-41 -3 -849 c-3 -954 -6 -908 70 -984 63 -64 158 -87 241 -58 57 21 100 58
130 115 l28 51 -1 229 c0 132 4 232 9 235 5 4 78 8 163 10 256 7 451 48 573
121 212 127 322 377 286 650 -48 359 -308 592 -736 658 -122 19 -371 28 -480
18z m530 -109 c191 -43 324 -110 432 -217 80 -80 129 -168 159 -284 22 -86 15
-292 -11 -370 -45 -130 -140 -238 -260 -296 -115 -56 -313 -87 -570 -89 l-170
-1 -5 -275 c-4 -244 -7 -279 -23 -303 -60 -93 -212 -89 -264 5 -17 31 -18 85
-21 843 -2 446 0 829 3 853 5 30 17 56 42 83 68 76 85 79 368 74 183 -3 248
-7 320 -23z"/>
<path d="M495 8167 c-3 -7 -4 -154 -3 -327 l3 -315 220 0 c245 0 327 13 408
65 60 38 81 84 85 192 5 121 -14 175 -87 249 -58 58 -112 84 -231 115 -134 34
-385 48 -395 21z m371 -102 c145 -37 208 -77 244 -157 26 -56 27 -160 2 -208
-33 -66 -175 -99 -433 -100 -79 0 -98 3 -103 16 -8 21 -8 448 0 469 6 15 18
16 103 10 53 -4 137 -17 187 -30z"/>
<path d="M4015 8571 c-99 -10 -148 -30 -204 -84 -87 -84 -81 -11 -81 -978 l0
-857 28 -53 c51 -99 154 -145 264 -119 65 16 150 95 167 156 6 23 11 133 11
262 0 170 3 222 13 223 6 0 46 0 87 -1 103 -1 296 18 407 40 223 46 372 151
456 322 49 100 67 181 67 314 0 132 -22 233 -76 344 -29 59 -57 95 -128 165
-78 78 -106 98 -196 143 -112 55 -246 95 -375 111 -115 15 -347 21 -440 12z
m526 -109 c384 -83 590 -299 607 -634 15 -314 -149 -524 -459 -587 -126 -26
-327 -41 -461 -34 l-108 6 0 -264 c0 -239 -2 -268 -20 -306 -25 -57 -69 -83
-139 -83 -43 0 -61 5 -89 26 -65 50 -62 9 -62 925 l0 832 25 43 c30 50 68 80
121 94 22 5 140 8 264 6 181 -3 244 -7 321 -24z"/>
<path d="M4120 7850 l0 -330 183 0 c276 1 395 24 472 91 86 76 87 279 2 391
-82 108 -300 178 -554 178 l-103 0 0 -330z m339 224 c122 -25 181 -52 233
-104 38 -39 48 -59 58 -106 14 -64 8 -130 -15 -173 -22 -43 -103 -70 -245 -82
-63 -6 -153 -9 -200 -7 l-85 3 -3 235 c-1 129 0 241 3 249 7 17 135 9 254 -15z"/>
<path d="M2450 8559 c-47 -4 -107 -12 -135 -18 -119 -28 -263 -104 -355 -187
-115 -104 -238 -318 -287 -501 -25 -91 -27 -113 -27 -308 -1 -196 1 -217 26
-315 96 -380 334 -649 647 -732 111 -29 328 -36 446 -13 235 44 458 191 592
390 57 85 128 231 165 338 30 86 32 103 36 262 6 247 -22 387 -114 565 -138
268 -364 432 -689 499 -118 24 -189 28 -305 20z m282 -99 c125 -27 251 -73
332 -122 140 -82 282 -255 346 -419 56 -145 64 -196 65 -404 0 -190 0 -190
-33 -284 -99 -283 -265 -489 -477 -591 -147 -71 -210 -84 -390 -83 -231 1
-356 41 -505 159 -176 141 -305 390 -341 661 -17 128 -6 334 25 453 75 295
275 534 511 611 135 43 323 51 467 19z"/>
<path d="M2399 8156 c-122 -34 -232 -131 -295 -262 -103 -215 -97 -525 16
-750 58 -115 123 -185 216 -231 66 -32 88 -38 189 -46 97 -9 124 -7 187 8 96
23 175 65 241 130 327 322 276 907 -95 1089 -141 69 -336 95 -459 62z m287
-86 c109 -29 175 -63 244 -127 130 -120 188 -334 145 -538 -36 -171 -127 -318
-240 -390 -86 -55 -140 -67 -278 -64 -109 4 -128 7 -179 32 -109 53 -194 175
-240 344 -27 100 -29 313 -3 412 19 76 65 170 108 223 92 114 259 155 443 108z"/>
<path d="M7985 8530 c-112 -12 -193 -36 -305 -92 -91 -45 -117 -63 -195 -142
-99 -99 -148 -182 -200 -338 -72 -219 -84 -662 -24 -918 29 -122 78 -218 155
-300 79 -83 136 -121 241 -160 282 -102 765 -90 995 26 84 42 174 124 211 192
46 85 60 154 55 266 -12 231 -103 355 -261 356 -173 0 -275 -149 -222 -324 8
-27 15 -52 15 -56 0 -4 -28 -15 -62 -26 -53 -16 -95 -19 -268 -19 -392 0 -415
25 -415 450 1 252 11 323 61 436 54 119 158 175 324 173 59 -1 103 -8 144 -22
102 -37 145 -83 176 -189 29 -95 111 -153 218 -153 99 0 171 41 212 120 42 83
33 184 -30 316 -129 270 -479 441 -825 404z m291 -100 c45 -10 106 -30 137
-44 204 -90 355 -278 365 -453 l4 -72 -40 -42 c-36 -39 -44 -43 -98 -47 -50
-3 -65 0 -94 20 -36 24 -40 31 -88 138 -35 79 -78 123 -155 160 -204 98 -478
45 -582 -113 -82 -125 -110 -291 -102 -601 6 -282 33 -361 140 -414 198 -99
735 -67 764 46 3 14 0 51 -7 82 -7 30 -15 73 -17 95 -11 111 123 192 227 136
44 -23 68 -63 91 -154 65 -246 -46 -444 -293 -522 -44 -14 -141 -33 -217 -42
-115 -14 -161 -15 -296 -5 -93 6 -193 19 -240 31 -257 67 -400 222 -445 487
-25 142 -27 487 -5 640 55 368 236 589 549 670 120 31 285 33 402 4z"/>
<path d="M10391 8514 c-38 -19 -62 -40 -81 -71 -50 -78 -53 -117 -30 -312 47
-401 4 -831 -107 -1058 -72 -147 -128 -181 -249 -148 -117 32 -185 119 -238
308 -40 139 -46 215 -55 662 -8 387 -10 424 -28 465 -52 117 -174 175 -288
136 -68 -23 -109 -58 -139 -118 -26 -52 -26 -52 -26 -307 0 -650 44 -971 165
-1211 130 -258 397 -423 685 -422 355 1 587 244 703 737 54 228 62 315 62 655
0 527 -30 640 -184 695 -66 23 -129 19 -190 -11z m174 -73 c77 -35 86 -59 110
-285 19 -188 19 -472 0 -646 -75 -670 -295 -990 -681 -990 -205 0 -418 107
-541 273 -98 132 -155 305 -193 587 -6 41 -15 266 -20 499 -10 462 -10 466 45
509 36 29 87 42 132 35 46 -8 107 -67 117 -114 4 -19 11 -221 16 -449 5 -228
14 -449 20 -490 17 -109 70 -276 113 -352 74 -133 216 -205 361 -184 98 15
208 165 266 364 71 246 91 764 40 1058 -9 52 10 127 40 160 42 44 112 54 175
25z"/>
<path d="M5887 8519 c-82 -12 -180 -37 -262 -67 -128 -47 -185 -134 -172 -260
4 -37 0 -98 -13 -172 -53 -313 -73 -610 -68 -1000 l3 -285 28 -57 c32 -65 68
-95 158 -133 63 -27 66 -28 219 -22 260 10 476 65 716 182 408 199 622 525
600 915 -13 240 -99 435 -265 601 -201 201 -485 312 -789 308 -53 -1 -123 -5
-155 -10z m330 -85 c102 -15 239 -56 318 -97 120 -60 267 -187 337 -291 181
-264 191 -633 24 -900 -84 -134 -248 -277 -414 -361 -221 -110 -527 -184 -763
-185 -77 0 -92 3 -149 33 -35 17 -72 43 -82 57 -29 40 -38 129 -38 385 0 346
29 694 83 997 10 56 11 89 4 126 -9 41 -7 55 9 88 25 50 68 79 170 109 171 53
329 65 501 39z"/>
<path d="M5956 8130 c-38 -5 -72 -12 -76 -17 -7 -7 -41 -171 -55 -268 -32
-226 -45 -410 -45 -659 l0 -269 78 6 c93 7 280 54 379 96 169 72 290 165 364
278 76 117 100 225 80 365 -26 185 -128 316 -316 404 -123 58 -267 81 -409 64z
m259 -95 c131 -34 255 -113 315 -200 56 -81 72 -145 68 -270 -3 -97 -7 -117
-31 -167 -79 -161 -272 -291 -533 -358 -65 -17 -130 -30 -144 -28 l-25 3 -3
200 c-2 154 2 244 18 390 21 189 56 421 66 437 9 14 207 9 269 -7z"/>
</g>
</svg>
