<?xml version="1.0" encoding="UTF-8"?>
<svg xmlns="http://www.w3.org/2000/svg" xmlns:xlink="http://www.w3.org/1999/xlink" width="520px" height="400px" viewBox="0 0 520 400" version="1.1">
<g id="surface1">
<path style=" stroke:none;fill-rule:nonzero;fill:rgb(0%,0%,0%);fill-opacity:1;" d="M 18.535156 82.554688 C 16.417969 82.742188 13.914062 83.109375 12.953125 83.445312 C 10.542969 84.222656 7.367188 86.480469 6.113281 88.296875 L 5.054688 89.816406 L 4.910156 121.257812 C 4.765625 156.59375 4.621094 154.890625 8.28125 157.703125 C 11.316406 160.074219 15.890625 160.925781 19.886719 159.851562 C 22.628906 159.074219 24.699219 157.703125 26.144531 155.59375 L 27.492188 153.703125 L 27.445312 145.222656 C 27.445312 140.332031 27.636719 136.628906 27.878906 136.519531 C 28.117188 136.371094 31.632812 136.222656 35.726562 136.148438 C 48.050781 135.890625 57.441406 134.371094 63.316406 131.667969 C 73.523438 126.964844 78.820312 117.703125 77.085938 107.59375 C 74.773438 94.296875 62.253906 85.667969 41.648438 83.222656 C 35.773438 82.519531 23.785156 82.183594 18.535156 82.554688 Z M 44.054688 86.59375 C 53.25 88.183594 59.65625 90.667969 64.855469 94.628906 C 68.707031 97.59375 71.066406 100.851562 72.511719 105.148438 C 73.570312 108.332031 73.234375 115.964844 71.980469 118.851562 C 69.816406 123.667969 65.242188 127.667969 59.464844 129.816406 C 53.925781 131.890625 44.394531 133.035156 32.019531 133.109375 L 23.832031 133.148438 L 23.59375 143.332031 C 23.398438 152.371094 23.253906 153.667969 22.484375 154.554688 C 19.597656 158 12.277344 157.851562 9.773438 154.371094 C 8.957031 153.222656 8.90625 151.222656 8.761719 123.148438 C 8.667969 106.628906 8.761719 92.445312 8.90625 91.554688 C 9.148438 90.445312 9.726562 89.480469 10.929688 88.480469 C 14.203125 85.667969 15.023438 85.554688 28.648438 85.742188 C 37.460938 85.851562 40.589844 86 44.054688 86.59375 Z M 44.054688 86.59375 "/>
<path style=" stroke:none;fill-rule:nonzero;fill:rgb(0%,0%,0%);fill-opacity:1;" d="M 23.832031 97.519531 C 23.6875 97.777344 23.640625 103.222656 23.6875 109.628906 L 23.832031 121.296875 L 34.425781 121.296875 C 46.222656 121.296875 50.171875 120.816406 54.070312 118.890625 C 56.960938 117.480469 57.96875 115.777344 58.164062 111.777344 C 58.402344 107.296875 57.488281 105.296875 53.972656 102.554688 C 51.179688 100.40625 48.582031 99.445312 42.851562 98.296875 C 36.398438 97.035156 24.316406 96.519531 23.832031 97.519531 Z M 41.695312 101.296875 C 48.679688 102.667969 51.710938 104.148438 53.445312 107.109375 C 54.695312 109.183594 54.746094 113.035156 53.539062 114.816406 C 51.953125 117.257812 45.113281 118.480469 32.691406 118.519531 C 28.890625 118.519531 27.972656 118.40625 27.734375 117.925781 C 27.347656 117.148438 27.347656 101.332031 27.734375 100.554688 C 28.023438 100 28.601562 99.964844 32.691406 100.183594 C 35.246094 100.332031 39.289062 100.816406 41.695312 101.296875 Z M 41.695312 101.296875 "/>
<path style=" stroke:none;fill-rule:nonzero;fill:rgb(0%,0%,0%);fill-opacity:1;" d="M 193.316406 82.554688 C 188.546875 82.925781 186.1875 83.667969 183.492188 85.667969 C 179.304688 88.777344 179.59375 86.074219 179.59375 121.890625 L 179.59375 153.628906 L 180.941406 155.59375 C 183.394531 159.257812 188.355469 160.964844 193.652344 160 C 196.78125 159.40625 200.875 156.480469 201.691406 154.222656 C 201.980469 153.371094 202.222656 149.296875 202.222656 144.519531 C 202.222656 138.222656 202.367188 136.296875 202.847656 136.257812 C 203.136719 136.257812 205.0625 136.257812 207.035156 136.296875 C 211.996094 136.332031 221.289062 135.628906 226.632812 134.816406 C 237.371094 133.109375 244.542969 129.222656 248.589844 122.890625 C 250.949219 119.183594 251.816406 116.183594 251.816406 111.257812 C 251.816406 106.371094 250.753906 102.628906 248.15625 98.519531 C 246.757812 96.332031 245.410156 95 241.992188 92.40625 C 238.238281 89.519531 236.890625 88.777344 232.554688 87.109375 C 227.164062 85.074219 220.710938 83.59375 214.5 83 C 208.964844 82.445312 197.792969 82.222656 193.316406 82.554688 Z M 218.640625 86.59375 C 237.128906 89.667969 247.046875 97.667969 247.867188 110.074219 C 248.589844 121.703125 240.691406 129.480469 225.765625 131.816406 C 219.699219 132.777344 210.023438 133.332031 203.570312 133.074219 L 198.371094 132.851562 L 198.371094 142.628906 C 198.371094 151.480469 198.273438 152.554688 197.40625 153.964844 C 196.203125 156.074219 194.085938 157.035156 190.714844 157.035156 C 188.644531 157.035156 187.777344 156.851562 186.429688 156.074219 C 183.300781 154.222656 183.445312 155.742188 183.445312 121.816406 L 183.445312 91 L 184.648438 89.40625 C 186.09375 87.554688 187.921875 86.445312 190.472656 85.925781 C 191.535156 85.742188 197.214844 85.628906 203.183594 85.703125 C 211.898438 85.816406 214.933594 85.964844 218.640625 86.59375 Z M 218.640625 86.59375 "/>
<path style=" stroke:none;fill-rule:nonzero;fill:rgb(0%,0%,0%);fill-opacity:1;" d="M 198.371094 109.257812 L 198.371094 121.480469 L 207.179688 121.480469 C 220.46875 121.445312 226.199219 120.59375 229.90625 118.109375 C 234.046875 115.296875 234.097656 107.777344 230.003906 103.628906 C 226.054688 99.628906 215.558594 97.035156 203.328125 97.035156 L 198.371094 97.035156 Z M 214.691406 100.964844 C 220.566406 101.890625 223.40625 102.890625 225.910156 104.816406 C 227.742188 106.257812 228.222656 107 228.703125 108.742188 C 229.378906 111.109375 229.089844 113.554688 227.980469 115.148438 C 226.921875 116.742188 223.023438 117.742188 216.183594 118.183594 C 213.152344 118.40625 208.820312 118.519531 206.554688 118.445312 L 202.464844 118.332031 L 202.320312 109.628906 C 202.269531 104.851562 202.320312 100.703125 202.464844 100.40625 C 202.800781 99.777344 208.964844 100.074219 214.691406 100.964844 Z M 214.691406 100.964844 "/>
<path style=" stroke:none;fill-rule:nonzero;fill:rgb(0%,0%,0%);fill-opacity:1;" d="M 117.964844 83 C 115.699219 83.148438 112.8125 83.445312 111.464844 83.667969 C 105.734375 84.703125 98.800781 87.519531 94.371094 90.59375 C 88.832031 94.445312 82.910156 102.371094 80.550781 109.148438 C 79.347656 112.519531 79.25 113.332031 79.25 120.554688 C 79.203125 127.816406 79.300781 128.59375 80.503906 132.222656 C 85.125 146.296875 96.585938 156.257812 111.65625 159.332031 C 117 160.40625 127.449219 160.667969 133.128906 159.816406 C 144.445312 158.183594 155.179688 152.742188 161.632812 145.371094 C 164.378906 142.222656 167.796875 136.816406 169.578125 132.851562 C 171.023438 129.667969 171.117188 129.035156 171.3125 123.148438 C 171.601562 114 170.25 108.816406 165.820312 102.222656 C 159.179688 92.296875 148.296875 86.222656 132.648438 83.742188 C 126.964844 82.851562 123.546875 82.703125 117.964844 83 Z M 131.539062 86.667969 C 137.558594 87.667969 143.625 89.371094 147.527344 91.183594 C 154.265625 94.222656 161.105469 100.628906 164.183594 106.703125 C 166.882812 112.074219 167.265625 113.964844 167.316406 121.667969 C 167.316406 128.703125 167.316406 128.703125 165.726562 132.183594 C 160.960938 142.667969 152.964844 150.296875 142.757812 154.074219 C 135.679688 156.703125 132.648438 157.183594 123.980469 157.148438 C 112.859375 157.109375 106.839844 155.628906 99.667969 151.257812 C 91.191406 146.035156 84.980469 136.816406 83.25 126.777344 C 82.429688 122.035156 82.960938 114.40625 84.453125 110 C 88.0625 99.074219 97.691406 90.222656 109.054688 87.371094 C 115.554688 85.777344 124.605469 85.480469 131.539062 86.667969 Z M 131.539062 86.667969 "/>
<path style=" stroke:none;fill-rule:nonzero;fill:rgb(0%,0%,0%);fill-opacity:1;" d="M 115.507812 97.925781 C 109.632812 99.183594 104.335938 102.777344 101.304688 107.628906 C 96.34375 115.59375 96.632812 127.074219 102.074219 135.40625 C 104.867188 139.667969 107.996094 142.257812 112.472656 143.964844 C 115.652344 145.148438 116.710938 145.371094 121.574219 145.667969 C 126.246094 146 127.542969 145.925781 130.578125 145.371094 C 135.199219 144.519531 139.003906 142.964844 142.179688 140.554688 C 157.925781 128.628906 155.46875 106.964844 137.605469 100.222656 C 130.820312 97.667969 121.429688 96.703125 115.507812 97.925781 Z M 129.324219 101.109375 C 134.574219 102.183594 137.75 103.445312 141.074219 105.816406 C 147.332031 110.257812 150.125 118.183594 148.054688 125.742188 C 146.320312 132.074219 141.941406 137.519531 136.5 140.183594 C 132.359375 142.222656 129.757812 142.667969 123.113281 142.554688 C 117.867188 142.40625 116.953125 142.296875 114.496094 141.371094 C 109.25 139.40625 105.15625 134.890625 102.941406 128.628906 C 101.640625 124.925781 101.542969 117.035156 102.796875 113.371094 C 103.710938 110.554688 105.925781 107.074219 107.996094 105.109375 C 112.425781 100.890625 120.464844 99.371094 129.324219 101.109375 Z M 129.324219 101.109375 "/>
<path style=" stroke:none;fill-rule:nonzero;fill:rgb(0%,0%,0%);fill-opacity:1;" d="M 384.464844 84.074219 C 379.070312 84.519531 375.171875 85.40625 369.777344 87.480469 C 365.394531 89.148438 364.144531 89.816406 360.390625 92.742188 C 355.621094 96.40625 353.261719 99.480469 350.757812 105.257812 C 347.292969 113.371094 346.714844 129.777344 349.605469 139.257812 C 351 143.777344 353.359375 147.332031 357.066406 150.371094 C 360.871094 153.445312 363.613281 154.851562 368.671875 156.296875 C 382.25 160.074219 405.503906 159.628906 416.578125 155.332031 C 420.621094 153.777344 424.957031 150.742188 426.738281 148.222656 C 428.953125 145.074219 429.625 142.519531 429.386719 138.371094 C 428.808594 129.816406 424.425781 125.222656 416.820312 125.183594 C 408.488281 125.183594 403.578125 130.703125 406.128906 137.183594 C 406.515625 138.183594 406.851562 139.109375 406.851562 139.257812 C 406.851562 139.40625 405.503906 139.816406 403.867188 140.222656 C 401.316406 140.816406 399.292969 140.925781 390.964844 140.925781 C 372.089844 140.925781 370.980469 140 370.980469 124.257812 C 371.03125 114.925781 371.511719 112.296875 373.917969 108.109375 C 376.519531 103.703125 381.527344 101.628906 389.519531 101.703125 C 392.359375 101.742188 394.476562 102 396.453125 102.519531 C 401.363281 103.890625 403.433594 105.59375 404.925781 109.519531 C 406.320312 113.035156 410.269531 115.183594 415.421875 115.183594 C 420.1875 115.183594 423.65625 113.667969 425.628906 110.742188 C 427.652344 107.667969 427.21875 103.925781 424.183594 99.035156 C 417.972656 89.035156 401.121094 82.703125 384.464844 84.074219 Z M 398.472656 87.777344 C 400.640625 88.148438 403.578125 88.890625 405.070312 89.40625 C 414.894531 92.742188 422.164062 99.703125 422.644531 106.183594 L 422.835938 108.851562 L 420.910156 110.40625 C 419.179688 111.851562 418.792969 112 416.191406 112.148438 C 413.785156 112.257812 413.0625 112.148438 411.667969 111.40625 C 409.933594 110.519531 409.742188 110.257812 407.429688 106.296875 C 405.746094 103.371094 403.675781 101.742188 399.964844 100.371094 C 390.144531 96.742188 376.953125 98.703125 371.945312 104.554688 C 367.996094 109.183594 366.648438 115.332031 367.035156 126.816406 C 367.320312 137.257812 368.621094 140.183594 373.773438 142.148438 C 383.308594 145.816406 409.164062 144.628906 410.558594 140.445312 C 410.703125 139.925781 410.558594 138.554688 410.222656 137.40625 C 409.886719 136.296875 409.5 134.703125 409.402344 133.890625 C 408.875 129.777344 415.324219 126.777344 420.332031 128.851562 C 422.453125 129.703125 423.605469 131.183594 424.714844 134.554688 C 427.84375 143.667969 422.5 151 410.605469 153.890625 C 408.488281 154.40625 403.820312 155.109375 400.160156 155.445312 C 394.621094 155.964844 392.40625 156 385.90625 155.628906 C 381.429688 155.40625 376.613281 154.925781 374.351562 154.480469 C 361.976562 152 355.09375 146.257812 352.925781 136.445312 C 351.722656 131.183594 351.625 118.40625 352.683594 112.742188 C 355.332031 99.109375 364.046875 90.925781 379.117188 87.925781 C 384.894531 86.777344 392.839844 86.703125 398.472656 87.777344 Z M 398.472656 87.777344 "/>
<path style=" stroke:none;fill-rule:nonzero;fill:rgb(0%,0%,0%);fill-opacity:1;" d="M 500.308594 84.667969 C 498.476562 85.371094 497.320312 86.148438 496.40625 87.296875 C 494 90.183594 493.855469 91.628906 494.964844 98.851562 C 497.226562 113.703125 495.15625 129.628906 489.8125 138.035156 C 486.34375 143.480469 483.648438 144.742188 477.820312 143.519531 C 472.1875 142.332031 468.914062 139.109375 466.363281 132.109375 C 464.4375 126.964844 464.148438 124.148438 463.714844 107.59375 C 463.328125 93.257812 463.234375 91.890625 462.367188 90.371094 C 459.863281 86.035156 453.988281 83.890625 448.5 85.332031 C 445.226562 86.183594 443.25 87.480469 441.808594 89.703125 C 440.554688 91.628906 440.554688 91.628906 440.554688 101.074219 C 440.554688 125.148438 442.675781 137.035156 448.5 145.925781 C 454.757812 155.480469 467.613281 161.59375 481.480469 161.554688 C 498.574219 161.519531 509.746094 152.519531 515.328125 134.257812 C 517.929688 125.816406 518.316406 122.59375 518.316406 110 C 518.316406 90.480469 516.871094 86.296875 509.457031 84.257812 C 506.277344 83.40625 503.246094 83.554688 500.308594 84.667969 Z M 508.683594 87.371094 C 512.394531 88.667969 512.824219 89.554688 513.980469 97.925781 C 514.894531 104.890625 514.894531 115.40625 513.980469 121.851562 C 510.371094 146.667969 499.777344 158.519531 481.191406 158.519531 C 471.320312 158.519531 461.066406 154.554688 455.144531 148.40625 C 450.425781 143.519531 447.679688 137.109375 445.851562 126.667969 C 445.5625 125.148438 445.128906 116.816406 444.890625 108.183594 C 444.40625 91.074219 444.40625 90.925781 447.054688 89.332031 C 448.789062 88.257812 451.246094 87.777344 453.410156 88.035156 C 455.625 88.332031 458.5625 90.519531 459.042969 92.257812 C 459.238281 92.964844 459.574219 100.445312 459.816406 108.890625 C 460.054688 117.332031 460.488281 125.519531 460.777344 127.035156 C 461.597656 131.074219 464.148438 137.257812 466.21875 140.074219 C 469.78125 145 476.617188 147.667969 483.601562 146.890625 C 488.320312 146.332031 493.613281 140.777344 496.40625 133.40625 C 499.824219 124.296875 500.789062 105.109375 498.332031 94.222656 C 497.898438 92.296875 498.816406 89.519531 500.257812 88.296875 C 502.28125 86.667969 505.652344 86.296875 508.683594 87.371094 Z M 508.683594 87.371094 "/>
<path style=" stroke:none;fill-rule:nonzero;fill:rgb(0%,0%,0%);fill-opacity:1;" d="M 283.449219 84.480469 C 279.5 84.925781 274.78125 85.851562 270.832031 86.964844 C 264.671875 88.703125 261.925781 91.925781 262.550781 96.59375 C 262.746094 97.964844 262.550781 100.222656 261.925781 102.964844 C 259.375 114.554688 258.410156 125.554688 258.652344 140 L 258.796875 150.554688 L 260.144531 152.667969 C 261.683594 155.074219 263.417969 156.183594 267.75 157.59375 C 270.785156 158.59375 270.929688 158.628906 278.296875 158.40625 C 290.816406 158.035156 301.214844 156 312.769531 151.667969 C 332.414062 144.296875 342.71875 132.222656 341.660156 117.777344 C 341.035156 108.890625 336.894531 101.667969 328.898438 95.519531 C 319.222656 88.074219 305.546875 83.964844 290.910156 84.109375 C 288.359375 84.148438 284.988281 84.296875 283.449219 84.480469 Z M 299.335938 87.628906 C 304.25 88.183594 310.84375 89.703125 314.648438 91.222656 C 320.425781 93.445312 327.503906 98.148438 330.875 102 C 339.589844 111.777344 340.070312 125.445312 332.03125 135.332031 C 327.984375 140.296875 320.089844 145.59375 312.097656 148.703125 C 301.457031 152.777344 286.722656 155.519531 275.359375 155.554688 C 271.652344 155.554688 270.929688 155.445312 268.183594 154.332031 C 266.5 153.703125 264.71875 152.742188 264.238281 152.222656 C 262.839844 150.742188 262.40625 147.445312 262.40625 137.964844 C 262.40625 125.148438 263.804688 112.257812 266.402344 101.035156 C 266.886719 98.964844 266.933594 97.742188 266.597656 96.371094 C 266.164062 94.851562 266.257812 94.332031 267.03125 93.109375 C 268.234375 91.257812 270.304688 90.183594 275.214844 89.074219 C 283.449219 87.109375 291.054688 86.667969 299.335938 87.628906 Z M 299.335938 87.628906 "/>
<path style=" stroke:none;fill-rule:nonzero;fill:rgb(0%,0%,0%);fill-opacity:1;" d="M 286.769531 98.890625 C 284.941406 99.074219 283.304688 99.332031 283.109375 99.519531 C 282.773438 99.777344 281.136719 105.851562 280.464844 109.445312 C 278.921875 117.816406 278.296875 124.628906 278.296875 133.851562 L 278.296875 143.816406 L 282.050781 143.59375 C 286.53125 143.332031 295.535156 141.59375 300.300781 140.035156 C 308.4375 137.371094 314.261719 133.925781 317.824219 129.742188 C 321.484375 125.40625 322.640625 121.40625 321.679688 116.222656 C 320.425781 109.371094 315.515625 104.519531 306.464844 101.257812 C 300.539062 99.109375 293.605469 98.257812 286.769531 98.890625 Z M 299.242188 102.40625 C 305.546875 103.667969 311.519531 106.59375 314.40625 109.816406 C 317.105469 112.816406 317.875 115.183594 317.679688 119.816406 C 317.535156 123.40625 317.34375 124.148438 316.1875 126 C 312.386719 131.964844 303.09375 136.777344 290.527344 139.257812 C 287.394531 139.890625 284.265625 140.371094 283.59375 140.296875 L 282.390625 140.183594 L 282.246094 132.777344 C 282.148438 127.074219 282.339844 123.742188 283.109375 118.332031 C 284.121094 111.332031 285.808594 102.742188 286.289062 102.148438 C 286.722656 101.628906 296.253906 101.816406 299.242188 102.40625 Z M 299.242188 102.40625 "/>
</g>
</svg>
